<svg width="198" height="53" viewBox="0 0 198 53" fill="none" xmlns="http://www.w3.org/2000/svg">
<g clip-path="url(#clip0)">
<path d="M0.0574951 36.5115V26.523L8.70117 31.523L17.3563 36.5115L8.70117 41.5115L0.0574951 46.5V36.5115Z" fill="#6877FF"/>
<path d="M0 6.5L26.1609 21.6034C29.9655 23.7989 30.0345 29.2586 26.2644 31.5L22.3563 33.569L2.94253 22.454C1.16092 21.4425 0.0574713 19.546 0.045977 17.4885L0 6.5Z" fill="#6877FF"/>
</g>
<path d="M45.134 14.368V40H49.994V31.036H56.402C59.246 31.036 61.478 30.316 63.062 28.804C64.646 27.292 65.474 25.276 65.474 22.72C65.474 20.164 64.646 18.148 63.062 16.636C61.478 15.124 59.246 14.368 56.402 14.368H45.134ZM49.994 26.86V18.544H56.186C57.59 18.544 58.67 18.904 59.426 19.624C60.182 20.344 60.578 21.388 60.578 22.72C60.578 24.088 60.182 25.096 59.426 25.816C58.67 26.536 57.59 26.86 56.186 26.86H49.994ZM72.5859 40V14.368H68.0499V40H72.5859ZM92.9453 40C92.4413 39.28 92.1893 38.128 92.1893 36.472V26.572C92.1893 22.864 89.5973 20.992 84.4493 20.992C79.1213 20.992 76.3493 23.116 76.0973 27.328H80.5613C80.6333 26.248 80.9933 25.492 81.5693 25.06C82.1453 24.628 83.0813 24.376 84.4133 24.376C85.6373 24.376 86.5013 24.592 87.0053 24.952C87.5093 25.312 87.7973 25.888 87.7973 26.68C87.7973 27.328 87.5813 27.832 87.1853 28.156C86.7533 28.48 86.1053 28.696 85.1693 28.804L82.3613 29.056C77.6093 29.56 75.2333 31.468 75.2333 34.852C75.2333 36.616 75.8093 37.984 77.0333 38.956C78.2573 39.964 79.8773 40.432 81.9293 40.432C84.6653 40.432 86.6453 39.532 87.9053 37.732C88.0133 38.884 88.1933 39.64 88.4093 40H92.9453ZM83.0093 37.192C82.0013 37.192 81.2093 36.976 80.6693 36.544C80.1293 36.112 79.8773 35.464 79.8773 34.672C79.8773 33.88 80.1293 33.304 80.6333 32.872C81.1373 32.44 82.0013 32.152 83.2253 32.008L85.6733 31.72C86.6453 31.612 87.3653 31.36 87.7973 30.964V32.656C87.7973 34.132 87.3293 35.248 86.4653 36.04C85.5653 36.832 84.4133 37.192 83.0093 37.192ZM105.354 26.104C104.058 30.28 103.086 33.736 102.366 36.436C101.43 32.836 100.458 29.38 99.4135 26.068L97.9015 21.424H93.0055L98.4055 36.688C98.9815 38.308 99.2695 39.568 99.2695 40.432C99.2695 41.332 98.9815 42.052 98.4775 42.592C97.9375 43.168 97.1815 43.42 96.2095 43.42H94.4815V46.984C95.0575 47.056 95.7055 47.092 96.4615 47.092C98.6935 47.092 100.386 46.696 101.574 45.868C102.726 45.076 103.662 43.636 104.454 41.512L111.618 21.424H106.866L105.354 26.104ZM117.797 40V14.368H113.261V40H117.797ZM125.952 19.012V14.764H121.488V19.012H125.952ZM125.988 40V21.424H121.452V40H125.988ZM136.952 40.504C139.544 40.504 141.596 40 143.036 38.992C144.476 37.984 145.196 36.544 145.196 34.672C145.196 33.088 144.656 31.864 143.648 30.964C142.64 30.1 140.984 29.452 138.752 29.02L136.412 28.66C135.296 28.48 134.504 28.228 134.036 27.868C133.532 27.508 133.316 27.04 133.316 26.392C133.316 24.952 134.396 24.232 136.556 24.232C137.816 24.232 138.788 24.484 139.436 24.952C140.084 25.42 140.408 26.212 140.48 27.292H144.764C144.584 23.116 141.848 20.992 136.556 20.992C134.108 20.992 132.2 21.496 130.868 22.504C129.5 23.512 128.852 24.88 128.852 26.608C128.852 29.704 130.868 31.576 134.936 32.224L137.06 32.584C138.428 32.836 139.364 33.124 139.904 33.484C140.408 33.844 140.696 34.384 140.696 35.032C140.696 36.544 139.472 37.264 137.024 37.264C135.656 37.264 134.648 37.048 134 36.544C133.352 36.076 132.992 35.248 132.884 34.096H128.456C128.672 38.38 131.516 40.504 136.952 40.504ZM157.011 21.424H153.339V16.024H148.839V21.424H145.959V24.88H148.839V35.392C148.839 37.048 149.271 38.272 150.207 39.028C151.143 39.784 152.619 40.144 154.635 40.144C155.211 40.144 156.003 40.108 157.011 40V36.544H155.463C154.671 36.544 154.131 36.436 153.807 36.184C153.483 35.968 153.339 35.536 153.339 34.924V24.88H157.011V21.424ZM170.287 26.104C168.991 30.28 168.019 33.736 167.299 36.436C166.363 32.836 165.391 29.38 164.347 26.068L162.835 21.424H157.939L163.339 36.688C163.915 38.308 164.203 39.568 164.203 40.432C164.203 41.332 163.915 42.052 163.411 42.592C162.871 43.168 162.115 43.42 161.143 43.42H159.415V46.984C159.991 47.056 160.639 47.092 161.395 47.092C163.627 47.092 165.319 46.696 166.507 45.868C167.659 45.076 168.595 43.636 169.387 41.512L176.551 21.424H171.799L170.287 26.104ZM193.006 37.768C194.734 36.004 195.598 33.664 195.598 30.712C195.598 27.76 194.734 25.384 193.006 23.62C191.278 21.892 188.974 20.992 186.166 20.992C183.322 20.992 181.054 21.892 179.326 23.656C177.562 25.42 176.698 27.76 176.698 30.712C176.698 33.664 177.562 36.04 179.326 37.768C181.054 39.568 183.322 40.432 186.166 40.432C188.974 40.432 191.278 39.568 193.006 37.768ZM186.166 36.688C184.654 36.688 183.466 36.184 182.602 35.14C181.738 34.132 181.342 32.656 181.342 30.712C181.342 28.804 181.738 27.328 182.602 26.284C183.466 25.276 184.654 24.736 186.166 24.736C187.678 24.736 188.83 25.276 189.694 26.32C190.558 27.364 190.99 28.84 190.99 30.712C190.99 32.62 190.558 34.096 189.694 35.14C188.83 36.184 187.678 36.688 186.166 36.688Z" fill="white"/>
<defs>
<clipPath id="clip0">
<rect width="29.046" height="40" fill="white" transform="translate(0 6.5)"/>
</clipPath>
</defs>
</svg>
